<?xml version="1.0" encoding="utf-8"?>
<!-- Generator: Adobe Illustrator 16.0.0, SVG Export Plug-In . SVG Version: 6.00 Build 0)  -->
<!DOCTYPE svg PUBLIC "-//W3C//DTD SVG 1.1//EN" "http://www.w3.org/Graphics/SVG/1.1/DTD/svg11.dtd">
<svg version="1.1" id="Layer_1" xmlns="http://www.w3.org/2000/svg" xmlns:xlink="http://www.w3.org/1999/xlink" x="0px" y="0px"
	 width="659.868px" height="509.898px" viewBox="0 0 659.868 509.898" enable-background="new 0 0 659.868 509.898"
	 xml:space="preserve">
<path fill="#21A594" d="M592.673,224.086l-43.542-58.599c-1.812-2.411-4.637-3.863-7.649-3.93c-3.383,0-5.915,1.292-7.807,3.65
	l-90.363,112.799L320.146,123.904c-1.826-2.332-4.638-3.024-7.621-3.024c-0.04,0-0.106,0-0.106,0c-3.105,0-5.943,1.079-7.729,3.518
	L193.569,274.837L99.93,169.258c-1.946-2.238-4.89-3.424-7.875-3.277c-2.972,0.187-5.716,1.758-7.421,4.211l-41.65,59.797
	c-3.092,4.424-2.012,10.606,2.424,13.683c4.398,3.104,10.486,2.199,13.592-2.225l34.561-49.231l87.699,99.303l15.028,17
	l49.645,56.213c1.839,2.092,4.504,4.705,7.315,4.705c0.133,0,0.254,0,0.387,0c2.932,0,5.676-2.612,7.42-4.983l60.558-81.942
	l63.369,81.755c1.839,2.359,4.637,5.17,7.621,5.17h0.08c2.958,0,5.756-2.759,7.595-5.063l41.57-52.31l14.31-17.987l84.846-106.778
	l36.002,48.445c3.225,4.317,9.354,5.196,13.67,1.999C595.018,234.518,595.897,228.403,592.673,224.086z M312.845,150.458
	l116.13,145.458l-36.213,45.194l-63.622-81.422c-1.878-2.385-4.703-3.557-7.781-3.744c-3.052,0.013-5.902,1.478-7.728,3.917
	l-61.037,81.542l-43.995-49.605"/>
<path fill="#21A594" d="M1414.755,224.086l-43.542-58.599c-1.812-2.411-4.637-3.863-7.649-3.93c-3.383,0-5.915,1.292-7.807,3.65
	l-90.363,112.799l-123.165-154.103c-1.826-2.332-4.638-3.024-7.621-3.024c-0.04,0-0.106,0-0.106,0c-3.105,0-5.943,1.079-7.729,3.518
	l-111.121,150.439l-93.64-105.579c-1.946-2.238-4.89-3.424-7.875-3.277c-2.972,0.187-5.716,1.758-7.421,4.211l-41.65,59.797
	c-3.092,4.424-2.012,10.606,2.424,13.683c4.398,3.104,10.486,2.199,13.592-2.225l34.561-49.231l87.699,99.303l15.028,17
	l49.645,56.213c1.839,2.092,4.504,4.705,7.315,4.705c0.133,0,0.254,0,0.387,0c2.932,0,5.676-2.612,7.42-4.983l60.558-81.942
	l63.369,81.755c1.839,2.359,4.637,5.17,7.621,5.17h0.08c2.958,0,5.756-2.759,7.595-5.063l41.57-52.31l14.31-17.987l84.846-106.778
	l36.002,48.445c3.225,4.317,9.354,5.196,13.67,1.999C1417.1,234.518,1417.979,228.403,1414.755,224.086z"/>
</svg>
